<?xml version="1.0" encoding="UTF-8"?>
<!DOCTYPE svg PUBLIC "-//W3C//DTD SVG 1.1//EN" "http://www.w3.org/Graphics/SVG/1.1/DTD/svg11.dtd">
<!-- Creator: CorelDRAW -->
<svg xmlns="http://www.w3.org/2000/svg" xml:space="preserve" width="30px" height="24px" version="1.1" style="shape-rendering:geometricPrecision; text-rendering:geometricPrecision; image-rendering:optimizeQuality; fill-rule:evenodd; clip-rule:evenodd"
viewBox="0 0 14.9 12.12"
 xmlns:xlink="http://www.w3.org/1999/xlink"
 xmlns:xodm="http://www.corel.com/coreldraw/odm/2003">
 <defs>
  <style type="text/css">
   <![CDATA[
    .fil0 {fill:#116541}
    .fil4 {fill:#82C24B}
    .fil1 {fill:#EA1D25}
    .fil9 {fill:#ED2D14}
    .fil6 {fill:#F1F9CA}
    .fil8 {fill:#F9FAE9}
    .fil5 {fill:#FACCCC}
    .fil7 {fill:#FAFAB2}
    .fil10 {fill:#FEE6DA}
    .fil2 {fill:#FEF105}
    .fil3 {fill:white}
   ]]>
  </style>
 </defs>
 <g id="Layer_x0020_1">
  <metadata id="CorelCorpID_0Corel-Layer"/>
  <g id="_2289439315872">
   <path class="fil0" d="M3.9 4.22c-0.14,0.01 -0.38,0.07 -0.54,0.11 -0.94,0.24 -1.6,0.4 -2.54,0.7 -0.35,0.12 -0.28,0.05 -0.33,0.33 -0.31,1.8 -0.37,3.6 -0.09,5.41 0.52,0.15 2.89,0.58 3.38,0.66 0.58,0.1 1.16,0.19 1.76,0.27 2.14,0.27 3.41,0.15 5.55,-0.24 0.86,-0.15 1.66,-0.32 2.51,-0.52 0.13,-0.03 0.26,-0.06 0.4,-0.1 0.13,-0.03 0.28,-0.08 0.41,-0.1 0.18,-0.56 0.25,-1.74 0.26,-2.36 0.02,-0.93 -0.07,-2.1 -0.28,-2.99 -0.04,-0.15 -0.04,-0.12 -0.16,-0.17 -0.09,-0.03 -0.16,-0.06 -0.25,-0.09 -0.53,-0.21 -1.41,-0.5 -1.97,-0.66 -0.17,-0.04 -0.34,-0.09 -0.51,-0.14 -0.17,-0.04 -0.37,-0.1 -0.54,-0.13 -0.01,0.19 0,0.39 0,0.58 0,0.18 0.02,0.21 -0.07,0.36 -0.01,0.01 -0.03,0.03 -0.03,0.04l-0.03 0.01c-0.07,0.05 -0.96,0.03 -1.12,0.03l-5.13 0c-0.33,0 -0.57,0.06 -0.66,-0.19 -0.04,-0.11 -0.02,-0.66 -0.02,-0.81z"/>
   <path class="fil1" d="M3.87 4c0.05,-0.01 0.03,0.03 0.04,0.08 0,0.05 -0.01,0.1 -0.01,0.14 0,0.15 -0.02,0.7 0.02,0.81 0.09,0.25 0.33,0.19 0.66,0.19l5.13 0c0.16,0 1.05,0.02 1.12,-0.03l0.03 -0.01c0,-0.01 0.02,-0.03 0.03,-0.04 0.09,-0.15 0.07,-0.18 0.07,-0.36 0,-0.19 -0.01,-0.39 0,-0.58 0,-0.06 -0.02,-0.18 0.02,-0.23 -0.04,-0.1 -0.02,-2.73 -0.02,-3.27 0,-0.13 0.02,-0.35 0,-0.47 -0.04,-0.29 -0.38,-0.22 -0.71,-0.22 -2.03,0 -4.08,-0.03 -6.11,0.01 -0.15,0 -0.23,0.1 -0.24,0.24 -0.02,0.28 0,1.49 0,1.87l0 1.66c0,0.12 0.02,0.14 -0.03,0.21z"/>
   <path class="fil2" d="M8.37 3.06c-0.05,-0.07 -0.01,-0.1 -0.05,-0.17 -0.03,-0.06 -0.07,-0.1 -0.09,-0.15 -0.9,-0.04 -0.83,-1.3 -1.1,-1.63 -0.05,-0.05 -0.07,-0.05 -0.06,-0.13 0.02,-0.05 0.26,-0.09 0.36,0.05 0.12,0.17 0.2,0.84 0.56,0.97 -0.05,-0.51 -0.12,-0.5 0.1,-0.69 0.19,-0.17 0.26,-0.17 0.27,-0.31 0.01,-0.09 0.06,-0.15 0.1,-0.2 0.05,-0.05 0.1,-0.09 0.16,-0.14 0.07,-0.05 0.12,-0.05 0.2,-0.09 -0.03,-0.05 -0.07,-0.09 -0.02,-0.15 0.08,-0.1 0.47,-0.11 0.35,0.14 0.16,0.05 0.27,0.12 0.36,0.22 0.22,0.27 0.01,0.29 0.2,0.39 0.62,-0.8 1.8,0.13 0.41,1.26 -0.05,0.04 -0.1,0.09 -0.16,0.13l-0.31 0.29c-0.09,0.1 -0.01,0.13 -0.07,0.21 0.16,0.02 1,0.02 1.1,-0.03 0.15,-0.07 0.16,-0.19 0.16,-0.39l0 -1.72c0,-0.42 0.1,-0.78 -0.36,-0.78l-5.72 0c-0.11,0 -0.48,-0.02 -0.56,0.02l-0.03 0.02c-0.15,0.11 -0.15,0.17 -0.15,0.37 0,0.17 -0.01,2.19 0.01,2.29 0.03,0.15 0.15,0.22 0.33,0.22l2.87 0c0.34,0 0.81,0.03 1.14,0z"/>
   <path class="fil2" d="M10.96 4.2c0.17,0.03 0.37,0.09 0.54,0.13 0.17,0.05 0.34,0.1 0.51,0.14 0.56,0.16 1.44,0.45 1.97,0.66 0.09,0.03 0.16,0.06 0.25,0.09 0.12,0.05 0.12,0.02 0.16,0.17 0.21,0.89 0.3,2.06 0.28,2.99 -0.01,0.62 -0.08,1.8 -0.26,2.36 -0.13,0.02 -0.28,0.07 -0.41,0.1 -0.14,0.04 -0.27,0.07 -0.4,0.1 -0.85,0.2 -1.65,0.37 -2.51,0.52 -2.14,0.39 -3.41,0.51 -5.55,0.24 -0.6,-0.08 -1.18,-0.17 -1.76,-0.27 -0.49,-0.08 -2.86,-0.51 -3.38,-0.66 -0.28,-1.81 -0.22,-3.61 0.09,-5.41 0.05,-0.28 -0.02,-0.21 0.33,-0.33 0.94,-0.3 1.6,-0.46 2.54,-0.7 0.16,-0.04 0.4,-0.1 0.54,-0.11 0,-0.04 0.01,-0.09 0.01,-0.14 -0.01,-0.05 0.01,-0.09 -0.04,-0.08 -0.22,0 -2.03,0.49 -2.21,0.54 -0.12,0.03 -1.22,0.37 -1.3,0.41 -0.05,0.03 -0.06,0.16 -0.08,0.26 -0.03,0.2 -0.07,0.38 -0.1,0.59 -0.05,0.42 -0.18,1.5 -0.18,1.87l0 1.38c0,0.12 0.01,0.2 0.02,0.32 0,0.08 0.01,0.09 0.01,0.17 0,0.06 0,0.11 0.01,0.17l0.05 0.62c0.01,0.2 0.07,0.51 0.07,0.62l2.88 0.61c0.89,0.18 2.13,0.37 3.04,0.47 0.53,0.06 1.06,0.09 1.65,0.09 0.28,0 0.56,-0.03 0.82,-0.04 0.08,-0.01 0.11,-0.02 0.2,-0.02l0.6 -0.06c0.48,-0.06 1.04,-0.14 1.51,-0.23 0.74,-0.15 1.44,-0.26 2.18,-0.45 0.12,-0.03 0.24,-0.06 0.35,-0.08 0.12,-0.03 0.24,-0.06 0.35,-0.09l0.86 -0.22c0.05,-0.02 0.04,-0.01 0.06,-0.05 0.01,-0.02 0.01,-0.06 0.02,-0.09l0.11 -0.76c0.02,-0.2 0.09,-0.83 0.09,-1.01 0,-0.1 0.01,-0.13 0.01,-0.21 0.02,-0.53 0,-1.2 -0.03,-1.73l-0.03 -0.39c-0.02,-0.14 -0.03,-0.26 -0.05,-0.4 -0.05,-0.41 -0.1,-0.71 -0.2,-1.09 -0.03,-0.12 -0.03,-0.1 -0.26,-0.19l-0.32 -0.12c-0.53,-0.22 -1.75,-0.6 -2.31,-0.75 -0.1,-0.02 -0.65,-0.17 -0.71,-0.17 -0.04,0.05 -0.02,0.17 -0.02,0.23z"/>
   <path class="fil3" d="M11.94 10.32c0.12,0.01 0.56,-0.04 0.67,-0.08 0.12,-0.04 0.08,-0.15 0.09,-0.29 0.01,-0.57 0,-1.32 0,-1.91 0,-0.08 -0.01,-0.09 0.04,-0.14 0.12,-0.11 0.32,-0.11 0.41,0.01 0.11,0.16 0.08,0.47 0.08,0.7 0,0.21 -0.01,1.39 0.01,1.5 0.21,0 0.56,-0.09 0.74,-0.14 0.04,-0.16 0.04,-1.9 0.01,-2.1 -0.09,-0.59 -0.69,-0.79 -1.12,-0.53 -0.07,0.04 -0.11,0.08 -0.17,0.11l0 -1.33c0,-0.33 0.05,-0.26 -0.52,-0.36 -0.05,0 -0.15,-0.03 -0.2,-0.02 -0.06,0.01 -0.04,0 -0.05,0.05 0,0.01 -0.03,4.16 0.01,4.53z"/>
   <path class="fil4" d="M8.29 10.53c0,-0.15 -0.01,-0.3 0,-0.45 0.01,-0.15 0.28,-0.49 0.27,-1.11 -0.1,0.01 -0.18,0.04 -0.27,0.06 -0.01,-0.1 -0.02,-0.48 0.02,-0.55l0.12 -0.16c0.21,-0.3 0.42,-0.62 0.38,-1.04 -0.18,-0.01 -0.36,0.06 -0.51,0.1 -0.03,-0.2 0,-0.53 -0.01,-0.7l-0.02 -0.07 0.01 0.77c-0.1,0.07 -0.38,0.1 -0.75,0.49 -0.16,0.17 -0.4,0.52 -0.41,0.86 0.04,-0.03 0.14,-0.19 0.19,-0.25 0.15,-0.2 0.45,-0.54 0.7,-0.62 -0.02,0.04 -0.18,0.2 -0.24,0.27 -0.22,0.25 -0.52,0.63 -0.53,0.98 0.21,-0.02 0.43,-0.13 0.58,-0.22 0.25,-0.14 0.38,-0.32 0.45,-0.36l0 0.51c-0.47,0.14 -1.4,0.3 -1.73,0.45 -0.47,0.21 -0.76,0.54 -0.87,1.03 -0.02,0.06 -0.05,0.18 -0.02,0.23 0.08,-0.18 0.57,-0.57 0.76,-0.67 0.33,-0.19 0.67,-0.33 1.13,-0.31 -0.06,0.04 -0.43,0.14 -0.65,0.25 -0.22,0.11 -0.39,0.21 -0.57,0.34l-0.23 0.21c-0.2,0.17 -0.5,0.57 -0.49,0.87 0.37,-0.47 1.73,-0.16 2.46,-1.07 0.08,-0.09 0.13,-0.19 0.21,-0.3 0.01,0.1 -0.02,0.4 0.02,0.46z"/>
   <path class="fil3" d="M0.96 9.95c0.16,0.1 0.68,0.17 0.92,0.21 0.26,0.05 0.73,0.15 0.98,0.14 0.02,-0.14 0.07,-0.61 -0.03,-0.67 -0.05,-0.03 -0.82,-0.11 -0.98,-0.13 -0.08,0 -0.07,-0.01 -0.07,-0.1 0,-0.06 0,-0.12 0,-0.19 -0.01,-0.25 0,-0.5 0,-0.75 0.29,-0.02 0.61,0.05 0.91,0 0.01,-0.14 0.02,-0.53 -0.01,-0.63 -0.17,-0.05 -0.67,0.03 -0.9,-0.01 0,-0.17 0,-0.34 0,-0.51 0,-0.4 -0.05,-0.41 0.09,-0.43 0.3,-0.03 0.65,-0.07 0.95,-0.08 0.08,-0.1 0.06,-0.18 0.06,-0.34 0.01,-0.44 0.1,-0.39 -0.77,-0.26 -0.18,0.03 -0.89,0.14 -1.04,0.18 -0.15,0.04 -0.11,0.13 -0.11,0.3 0,0.21 -0.01,3.14 0,3.27z"/>
   <path class="fil3" d="M10.17 8.91c0.25,-0.05 0.52,-0.11 0.78,-0.17 0.12,-0.03 0.25,-0.06 0.39,-0.09 0.14,-0.03 0.23,-0.06 0.26,-0.21 0.07,-0.38 -0.18,-1.06 -0.6,-1.29 -0.49,-0.26 -0.99,0.02 -1.23,0.47 -0.39,0.72 -0.38,2.47 0.38,2.89 0.44,0.23 0.99,0.04 1.26,-0.45 0.09,-0.15 0.24,-0.52 0.2,-0.74 -0.03,-0.16 -0.17,-0.18 -0.26,-0.06 -0.1,0.12 -0.07,0.12 -0.22,0.26 -0.17,0.16 -0.45,0.24 -0.67,0.06 -0.16,-0.14 -0.27,-0.37 -0.29,-0.67z"/>
   <path class="fil3" d="M8.27 6.61l0.02 0.07c0.01,0.17 -0.02,0.5 0.01,0.7 0.15,-0.04 0.33,-0.11 0.51,-0.1 0.04,0.42 -0.17,0.74 -0.38,1.04l-0.12 0.16c-0.04,0.07 -0.03,0.45 -0.02,0.55 0.09,-0.02 0.17,-0.05 0.27,-0.06 0.01,0.62 -0.26,0.96 -0.27,1.11 -0.01,0.15 0,0.3 0,0.45 0,0.18 0.18,0.11 0.52,0.11 0.3,0 0.32,0.01 0.31,-0.29 0,-0.35 -0.01,-3.68 0.02,-3.72 0,0 0.01,0 0.01,0 0,0 0.01,0 0.01,0 0.07,-0.02 0.24,0 0.31,0 0.11,0.01 0.23,0.01 0.35,0.01 0.03,-0.07 0.04,-0.04 0.04,-0.15 0,-0.11 0.02,-0.52 -0.03,-0.58 -0.06,-0.08 -0.59,-0.06 -0.73,-0.07 -0.27,-0.01 -1.35,-0.07 -1.53,-0.01 -0.03,0.15 -0.04,0.63 0.01,0.74 0.16,0.07 0.58,-0.01 0.69,0.04z"/>
   <path class="fil3" d="M3.91 7.09c-0.29,0.06 -0.51,0.19 -0.64,0.45 -0.13,0.26 -0.17,0.62 -0.06,0.91 0.11,0.29 0.29,0.43 0.52,0.58 0.21,0.15 0.5,0.31 0.53,0.56 0.03,0.33 -0.23,0.59 -0.47,0.12 -0.06,-0.12 -0.13,-0.27 -0.21,-0.34 -0.11,-0.1 -0.27,-0.12 -0.38,0 -0.27,0.29 0.01,1.09 0.82,1.19 0.79,0.1 0.99,-0.57 0.92,-1.22 -0.03,-0.32 -0.22,-0.56 -0.39,-0.7 -0.17,-0.15 -0.52,-0.31 -0.64,-0.46 -0.26,-0.3 0.02,-0.78 0.26,-0.52 0.12,0.14 0.22,0.67 0.55,0.49 0.11,-0.06 0.17,-0.21 0.16,-0.39 0,-0.17 -0.06,-0.3 -0.14,-0.41 -0.15,-0.2 -0.46,-0.33 -0.83,-0.26z"/>
   <path class="fil5" d="M8.03 1.42l0.09 0.03 -0.12 0.01c-0.06,0.18 0.06,0.68 0.11,0.85 0.11,0.37 0.26,0.59 0.26,0.6 0.05,0.17 -0.1,0.14 0.67,0.14 0.8,0 0.42,0 0.57,-0.21 0.28,-0.39 0.49,-1.31 0.34,-1.43 -0.06,-0.05 -0.35,-0.26 -0.36,-0.29 -0.06,-0.12 0.05,-0.14 -0.12,-0.32 -0.06,-0.06 -0.15,-0.15 -0.27,-0.17 0.07,0.07 0.17,0.08 0.33,0.3l-0.09 0c-0.08,-0.12 -0.21,-0.33 -0.37,-0.34l0.04 0.05c0.09,0.09 0.16,0.14 0.22,0.3l-0.6 0.01 0.19 -0.04c0,0 0.01,0 0.01,0 -0.04,-0.01 -0.07,-0.02 -0.11,-0.03 -0.01,0 -0.05,-0.01 -0.07,-0.02 0,0 -0.01,0 -0.02,0 -0.01,0 0,-0.01 -0.01,0l0.21 -0.02 -0.09 -0.03c-0.02,-0.01 -0.05,-0.01 -0.08,-0.02 0.03,0.02 0.13,-0.01 0.18,-0.01l-0.08 -0.04 0.11 -0.02 -0.08 -0.04c0.08,0 0.11,-0.12 -0.1,-0.06 -0.15,0.04 -0.26,0.15 -0.34,0.26 -0.07,0.1 -0.04,0.05 -0.05,0.18 -0.01,0.08 -0.13,0.14 -0.24,0.24 -0.04,0.04 -0.08,0.07 -0.13,0.12z"/>
   <path class="fil4" d="M4.95 8.43c0,0.57 0.24,0.95 0.65,1.24 0.19,0.12 0.23,0.15 0.39,-0.01 0.16,-0.16 0.18,-0.11 0.16,-0.42 -0.02,-0.32 -0.08,-0.71 -0.16,-1.02 -0.04,-0.16 -0.1,-0.33 -0.14,-0.48 0.03,0.02 0.01,0.01 0.03,0.03 0.06,0.08 0.13,0.21 0.17,0.3 0.11,0.22 0.19,0.55 0.23,0.8 0.08,0.48 -0.08,0.58 0.48,0.33 0.16,-0.07 0.21,-0.15 0.21,-0.36 -0.01,-0.49 -0.14,-0.71 -0.41,-1 -0.13,-0.15 -0.45,-0.42 -0.56,-0.57 -0.15,-0.2 -0.2,-0.25 -0.26,-0.57 -0.08,0.02 -0.23,0.28 -0.28,0.35 -0.23,0.38 -0.5,0.89 -0.51,1.38z"/>
   <path class="fil3" d="M6.79 3.29c-0.5,0.07 -0.76,0.42 -0.7,0.99 0.06,0.5 0.44,0.76 0.99,0.7 0.51,-0.06 0.76,-0.43 0.7,-1 -0.05,-0.48 -0.44,-0.76 -0.99,-0.69z"/>
   <path class="fil3" d="M4.5 4.95l0.51 0.01 0 -0.61c0.27,-0.02 0.5,0.03 0.7,-0.12 0.23,-0.18 0.37,-0.9 -0.39,-0.92 -0.22,0 -0.62,-0.02 -0.82,0.01l0 1.63z"/>
   <path class="fil3" d="M9.58 4.42l-0.43 -0.14c-0.08,0.17 -0.08,0.34 -0.36,0.32 -0.21,-0.01 -0.28,-0.18 -0.28,-0.4 -0.01,-0.23 0.02,-0.41 0.18,-0.5 0.08,-0.04 0.2,-0.04 0.28,0 0.12,0.06 0.09,0.1 0.16,0.19l0.44 -0.09c-0.02,-0.17 -0.19,-0.35 -0.31,-0.42 -0.32,-0.18 -1.29,-0.21 -1.27,0.79 0.03,0.95 1.02,0.9 1.31,0.7 0.12,-0.08 0.28,-0.25 0.28,-0.45z"/>
   <path class="fil1" d="M8.3 1.48c0.08,0.01 0.48,0.01 0.55,0.06l-0.27 0.03c0.02,-0.02 0.13,0.01 0.17,0.01l0.19 0.04c-0.05,0 -0.32,0.03 -0.34,0.01l0.29 0.03c0,0 -0.01,0 -0.01,0.01l-0.05 0.02c-0.02,0 -0.06,0.01 -0.08,0.01 -0.05,0 -0.1,0.01 -0.16,0.02 0.04,-0.01 0.11,0 0.16,0.01 0.13,0.02 0.1,0 0.16,0.03l-0.26 0.04c-0.05,0.01 -0.04,0.02 -0.07,-0.01l0.28 0.03c0.06,0.02 -0.03,-0.02 0.05,0.02l-0.34 0.04c0.02,-0.02 0.05,0 0.15,0.01 0.06,0.01 0.13,0.02 0.2,0.02 -0.06,0.04 -0.33,0.05 -0.35,0.05l0.37 0.05 -0.39 0.03c0.03,-0.02 0.34,0.03 0.37,0.04 -0.05,0.02 -0.3,0.05 -0.34,0.03 0.05,0.01 0.1,0.01 0.15,0.01 0.04,0.01 0.13,0.01 0.17,0.03l-0.25 0.04c0.08,0.01 0.22,0.02 0.27,0.04l-0.26 0.04c-0.06,0.01 -0.06,0.02 -0.08,0 0.1,0.03 0.23,0.01 0.29,0.04 -0.06,0.03 -0.19,0.04 -0.26,0.04l0.34 0.03 -0.31 0.05 0.29 0.04c-0.05,0.03 -0.29,0.06 -0.31,0.05 0.1,0.02 0.23,0.02 0.28,0.07l-0.25 0.03 0.28 0.04 -0.27 0.03c0.02,-0.02 0.06,0 0.13,0.01 0.02,0 0.05,0 0.07,0l0.07 0.03 -0.26 0.03 0.14 0.02c0.08,0.03 -0.08,-0.04 0.02,0.01l-0.1 0.03 0.13 0.04c-0.05,0.02 -0.13,0.05 -0.16,0.03l0.62 0.01c0.09,-0.14 0.18,-0.45 0.22,-0.62 0.05,-0.26 0.05,-0.5 0.05,-0.77 -0.06,-0.02 -1.25,-0.04 -1.29,-0.03z"/>
   <path class="fil6" d="M6.06 1.82l0.35 0 0.01 -0.49 0.11 0 0.02 0.49 0.35 0 0.01 -1.26 -0.36 -0.01 -0.01 0.44 -0.12 0 0 -0.43 -0.36 -0.01c-0.01,0.13 -0.01,1.16 0,1.27z"/>
   <path class="fil7" d="M5.22 1.82l0.74 0 0.01 -0.37 -0.35 -0.01 0 -0.09 0.34 0 0.01 -0.35 -0.35 -0.01c0,-0.07 -0.04,-0.06 0.14,-0.06 0.07,0 0.14,0.01 0.2,0l0.01 -0.37c-0.11,-0.02 -0.65,-0.02 -0.75,0l0 1.26z"/>
   <path class="fil3" d="M9.86 3.32c-0.03,0.08 -0.02,1.45 0,1.63l0.49 0c0.03,-0.08 0.01,-1.38 0.01,-1.63l-0.5 0z"/>
   <path class="fil8" d="M5.82 9.68c0.08,-0.06 0.15,-0.12 0.11,-0.18l-0.09 0.07 -0.04 -0.03 0.08 -0.11 -0.03 -0.03c0,0 0,0 -0.01,-0.01 0,0 0,0 0,0 -0.06,0.03 -0.06,0.06 -0.12,0.08l-0.03 -0.05c0.05,-0.07 0.12,-0.06 0.08,-0.15 -0.07,0.01 -0.08,0.06 -0.11,0.07 -0.07,0.03 -0.03,0.01 -0.04,0 -0.07,-0.08 0.13,-0.05 0.08,-0.19 -0.09,0.02 -0.08,0.06 -0.16,0.09 -0.09,-0.12 0.13,-0.09 0.09,-0.22 -0.08,-0.01 -0.14,0.16 -0.21,0.04 0.03,-0.06 0.12,-0.07 0.17,-0.13l-0.02 -0.05c-0.07,0.02 -0.11,0.07 -0.18,0.09l-0.04 -0.05c0.09,-0.1 0.21,-0.06 0.17,-0.18 -0.08,0 -0.12,0.06 -0.19,0.08l-0.02 -0.05c0.08,-0.1 0.2,-0.03 0.17,-0.18l-0.18 0.1c-0.01,-0.03 -0.02,-0.05 -0.02,-0.08 0.17,-0.11 0.2,-0.05 0.18,-0.16 -0.06,0 -0.11,0.04 -0.16,0.05l-0.04 0c-0.04,-0.11 0.14,-0.07 0.19,-0.16l0 -0.05c-0.08,0.01 -0.15,0.05 -0.21,0.06 -0.01,-0.09 0.04,-0.09 0.1,-0.11 0.08,-0.03 0.11,-0.02 0.11,-0.12 -0.08,0.02 -0.1,0.05 -0.19,0.06 0,-0.09 -0.02,-0.08 0.2,-0.14l0.01 -0.09 -0.19 0.05c0.02,-0.21 0.24,-0.06 0.21,-0.21l-0.16 0.03c0.02,-0.09 0.01,-0.07 0.09,-0.08 0.1,-0.01 0.1,0 0.11,-0.08 -0.06,0 -0.11,0.02 -0.15,0 0.03,-0.13 0.15,0 0.19,-0.12l-0.12 -0.01 0.03 -0.08c0.15,-0.03 0.1,0.02 0.14,-0.04 -0.02,-0.05 -0.04,-0.02 -0.11,-0.04l0.05 -0.08c0.1,0 0.09,0.03 0.14,-0.04l-0.1 -0.03 0.04 -0.06c0.08,-0.01 0.15,0.02 0.12,-0.09 -0.01,-0.02 -0.06,-0.17 -0.07,-0.19 -0.09,0.08 -0.34,0.53 -0.4,0.65 -0.1,0.22 -0.22,0.53 -0.25,0.81 -0.04,0.49 0.15,0.85 0.47,1.12 0.07,0.07 0.24,0.2 0.31,0.22z"/>
   <path class="fil1" d="M6.1 1.77l0.27 0.01 0 -0.48 0.2 0c0.04,0.12 0,0.33 0.02,0.47 0.06,0.02 0.21,0.01 0.27,0l0.01 -1.17 -0.28 -0.01 -0.01 0.43c-0.06,0.02 -0.14,0.02 -0.21,0.01l0 -0.43 -0.27 0 0 1.17z"/>
   <path class="fil1" d="M5.26 0.77l0 1.01 0.66 0 0 -0.29 -0.35 0 0 -0.19 0.35 0 0 -0.26 -0.34 0 -0.01 -0.16 0.35 0 0 -0.28c-0.2,-0.01 -0.45,0 -0.66,0l0 0.17z"/>
   <path class="fil8" d="M5.75 11.19c0.09,-0.02 0.18,-0.06 0.29,-0.08 0.11,-0.02 0.16,-0.08 0.21,-0.15l-0.13 -0.03c0.08,-0.08 0.04,-0.06 0.18,-0.06 0.09,0 0.09,-0.04 0.13,-0.08l-0.11 -0.02c0.03,-0.1 0.07,-0.06 0.17,-0.06 0.11,0 0.07,-0.05 0.14,-0.07l-0.11 -0.01c-0.04,-0.01 -0.02,0 -0.04,-0.02 0.14,-0.07 0.23,0.02 0.32,-0.1l-0.14 -0.01c0.07,-0.13 0.3,0 0.37,-0.13l-0.17 -0.01c0.06,-0.07 0.1,-0.06 0.19,-0.05 0.12,0.02 0.11,0 0.2,-0.04l-0.18 -0.03c0.08,-0.05 0.09,-0.05 0.2,-0.04 0.11,0.02 0.11,-0.01 0.19,-0.05l-0.14 -0.03c0.13,-0.09 0.18,0.02 0.31,-0.07 -0.04,-0.03 -0.05,-0.02 -0.09,-0.04 0.2,-0.08 0.11,0.06 0.46,-0.19 -0.2,-0.01 -0.56,0.09 -0.74,0.15 -0.44,0.13 -0.82,0.4 -1.13,0.69 -0.09,0.09 -0.35,0.41 -0.38,0.53z"/>
   <path class="fil1" d="M6.87 3.68c-0.24,0.04 -0.29,0.26 -0.27,0.52 0.01,0.25 0.13,0.44 0.4,0.4 0.23,-0.04 0.29,-0.27 0.27,-0.53 -0.01,-0.24 -0.13,-0.44 -0.4,-0.39z"/>
   <polygon class="fil1" points="4.24,0.88 4.52,0.88 4.53,1.77 4.84,1.78 4.84,0.89 5.08,0.88 5.08,0.6 4.24,0.59 "/>
   <path class="fil8" d="M6.41 9.24c0.04,-0.01 0.28,-0.09 0.33,-0.11l0 -0.11 -0.14 0.05c-0.02,-0.14 0.13,-0.03 0.13,-0.17l-0.15 0.04c0,-0.12 0.12,-0.02 0.14,-0.13 0,0 0.01,-0.03 -0.09,0 -0.03,0.01 -0.03,0.02 -0.08,0.02 0.01,-0.09 0.15,-0.03 0.15,-0.14 -0.07,-0.03 -0.1,0.07 -0.16,0.01 0.04,-0.01 0.14,-0.03 0.15,-0.09 -0.07,-0.04 -0.11,0.06 -0.17,0.01 0.07,-0.06 0.15,-0.03 0.14,-0.13 -0.09,0.01 -0.11,0.07 -0.17,0.04 0.03,-0.07 0.16,-0.06 0.14,-0.12 -0.03,-0.08 -0.11,0.05 -0.17,0 0.05,-0.04 0.12,-0.04 0.14,-0.09 -0.06,-0.06 -0.05,0 -0.12,0.01 -0.04,0.01 -0.01,0.01 -0.04,-0.01 0.03,-0.08 0.09,-0.01 0.12,-0.1 -0.08,-0.04 -0.07,0.03 -0.15,0.01 0.02,-0.07 0.09,-0.02 0.1,-0.1 -0.07,-0.06 -0.08,0.05 -0.15,0 0.03,-0.04 0.05,-0.03 0.11,-0.06l-0.03 -0.05c-0.08,0.03 -0.1,0.08 -0.13,0.01l0.1 -0.05c-0.06,-0.11 -0.07,0.02 -0.14,-0.02 0.02,-0.08 0.05,-0.02 0.08,-0.09 -0.04,-0.02 -0.02,-0.01 -0.06,0l-0.06 0c0.02,-0.04 0.03,-0.03 0.08,-0.06 -0.06,-0.04 -0.05,-0.03 -0.13,-0.03 0.02,-0.06 0.01,-0.01 0.05,-0.06 -0.05,-0.04 -0.03,-0.02 -0.12,-0.01 0.05,-0.09 0.04,0.01 0.04,-0.08l-0.1 0c0,-0.01 0,-0.01 0,-0.01l0.02 -0.03c0.01,-0.01 0.03,0.01 0,-0.02 -0.02,-0.02 -0.05,-0.02 -0.09,-0.02 0,-0.06 0.04,-0.04 -0.05,-0.09 -0.04,-0.03 -0.08,-0.05 -0.13,-0.06 0.01,0.05 0.07,0.12 0.1,0.18 0.11,0.17 0.24,0.43 0.31,0.62 0.11,0.29 0.17,0.7 0.2,1.04z"/>
   <path class="fil0" d="M10.12 8.39c0.11,0 0.67,-0.11 0.74,-0.15 0,-0.27 -0.12,-0.65 -0.43,-0.56 -0.25,0.08 -0.28,0.42 -0.31,0.71z"/>
   <path class="fil2" d="M9.89 1.32c0.15,0.13 0.14,0.08 0.13,0.36 -0.01,0.17 -0.05,0.29 -0.06,0.44 0.09,-0.03 0.28,-0.2 0.33,-0.26 0.31,-0.32 0.3,-0.77 -0.02,-0.76 -0.15,0.01 -0.33,0.14 -0.38,0.22z"/>
   <path class="fil9" d="M5.59 2.54c0.05,0.1 0.17,0.12 0.26,0.04 0.15,0.1 0.09,0.04 0.31,-0.07l-0.1 0.27 0.11 0c0.06,-0.13 0.11,-0.47 0.29,-0.41 0.04,0.14 -0.09,0.1 -0.13,0.2 0.27,0.09 0.32,-0.35 0.09,-0.3 -0.04,0.01 -0.05,0.03 -0.08,0.03 -0.03,0 0,-0.03 -0.1,-0.01 -0.07,0.09 0.01,0.06 -0.11,0.15 -0.3,0.24 -0.12,-0.04 -0.11,-0.15 -0.06,-0.01 -0.05,-0.01 -0.1,0 -0.06,0 -0.2,-0.05 -0.3,0.06 -0.04,0.04 -0.02,0.21 -0.27,0.23 -0.36,0.02 -0.1,-0.54 0.2,-0.45 0.01,0.08 -0.05,0.16 0.08,0.11 0.12,-0.31 -0.43,-0.25 -0.56,0.05 -0.08,0.19 0.04,0.45 0.34,0.34 0.08,-0.03 0.12,-0.07 0.18,-0.09z"/>
   <path class="fil8" d="M9.74 1.2c0.14,-0.08 0.2,-0.21 0.43,-0.23 -0.17,0.03 -0.32,0.16 -0.4,0.26 0.08,0 0.19,-0.2 0.43,-0.21l-0.05 0.03c-0.07,0.03 -0.1,0.03 -0.16,0.08 -0.05,0.04 -0.14,0.1 -0.15,0.16 0.08,-0.04 0.22,-0.23 0.44,-0.23 0.38,0.01 0.33,0.56 0.02,0.85 -0.13,0.12 -0.36,0.26 -0.37,0.31 0.24,-0.11 0.41,-0.26 0.54,-0.46 0.04,-0.07 0.07,-0.17 0.11,-0.23 -0.02,0.26 -0.3,0.51 -0.49,0.65 -0.15,0.11 -0.18,0.08 -0.2,0.17 0.2,-0.05 0.62,-0.45 0.72,-0.76 0.02,-0.06 0.02,-0.14 0.04,-0.18 0.02,0.17 -0.04,0.31 -0.11,0.42l-0.23 0.31c-0.38,0.4 -0.47,0.22 -0.56,0.54 0.08,-0.04 0.2,-0.16 0.28,-0.22 0.27,-0.22 0.56,-0.47 0.66,-0.85 0.22,-0.85 -0.71,-0.84 -0.95,-0.41z"/>
   <path class="fil8" d="M7.35 8.99c0.06,-0.01 0.2,-0.06 0.26,-0.09 0.06,-0.02 0.06,-0.01 0.07,-0.06 -0.04,-0.01 -0.08,0 -0.12,-0.03 0.11,-0.05 0.15,0.02 0.19,-0.07 -0.06,0 -0.1,0.01 -0.14,-0.02 0.07,-0.07 0.19,0.03 0.21,-0.09 -0.02,0 -0.04,0 -0.06,0l-0.07 -0.02c0.09,-0.07 0.14,0.04 0.21,-0.07 -0.06,-0.01 -0.12,0 -0.15,-0.02 0.13,-0.09 0.16,0.04 0.22,-0.08l-0.13 -0.02c0.07,-0.09 0.15,0.05 0.21,-0.09l-0.12 -0.01c-0.01,0 -0.01,-0.01 -0.02,-0.01 0,0 0,0 0,0 0.08,-0.07 0.15,0.02 0.2,-0.06 0,0 -0.01,-0.01 -0.01,0l-0.12 -0.03c0.1,-0.09 0.15,0.04 0.22,-0.09 -0.04,0 -0.09,0.01 -0.12,-0.01 0.05,-0.08 0.1,0 0.18,-0.06l-0.02 -0.01c-0.07,-0.02 -0.04,0 -0.08,-0.02 0.04,-0.05 0.07,-0.03 0.14,-0.04l0.03 -0.05 -0.06 -0.02c-0.01,0 -0.01,0 -0.02,0 0,0 0,-0.01 -0.01,-0.01 0.07,-0.04 0.1,-0.01 0.14,-0.05 0,-0.04 -0.05,0 -0.03,-0.04 0.02,-0.04 0.04,-0.01 0.08,-0.04 0.05,-0.04 0.07,-0.12 0.1,-0.16 -0.18,0.05 -0.69,0.56 -0.84,0.74 -0.15,0.18 -0.28,0.39 -0.34,0.63z"/>
   <path class="fil10" d="M7.1 1c0.02,0.1 0.09,0.04 0.22,0.47 0.12,0.41 0.12,0.65 0.41,1 0.05,0.05 0.12,0.12 0.2,0.16 0.04,0.02 0.08,0.04 0.12,0.05 0.01,0 0.07,0.02 0.08,0.02 0.02,0 0.02,0 0.04,0 0.03,-0.01 0.02,-0.01 0.04,-0.02 -0.04,-0.05 -0.1,-0.03 -0.23,-0.09 -0.37,-0.19 -0.5,-0.65 -0.59,-1.02 -0.05,-0.18 -0.11,-0.3 -0.17,-0.47 0.21,0.04 0.2,1.11 0.72,1.42l0.22 0.06c-0.05,-0.07 -0.37,-0.11 -0.59,-0.6 -0.09,-0.22 -0.11,-0.44 -0.21,-0.68 -0.02,-0.05 -0.09,-0.16 -0.06,-0.19 0.13,0.13 0.3,1.07 0.75,1.14 -0.02,-0.17 -0.36,-0.06 -0.58,-0.83 -0.02,-0.07 -0.03,-0.12 -0.06,-0.18l-0.04 -0.13c-0.01,-0.03 -0.01,-0.02 0,-0.03 0.08,0.11 0.15,0.45 0.23,0.6 0.08,0.17 0.24,0.37 0.41,0.42 -0.01,-0.08 -0.02,-0.04 -0.13,-0.12 -0.35,-0.3 -0.32,-0.61 -0.44,-0.85 -0.04,-0.08 -0.05,-0.11 -0.13,-0.14 -0.07,-0.03 -0.16,-0.02 -0.21,0.01z"/>
   <path class="fil1" d="M8.66 1.2l0.25 0.05c-0.05,0.02 -0.25,0.03 -0.26,0.03l0.32 0.05 -0.33 0.03 0.22 0.02c-0.02,0.01 0,0.01 -0.04,0.02 -0.01,0 -0.02,0 -0.04,0.01l-0.06 0.01c0,0 -0.01,0.01 -0.01,0.01l0.87 0 -0.18 -0.28c-0.08,-0.01 -0.54,0.04 -0.67,0.06 -0.06,0 -0.05,0.02 -0.07,-0.01z"/>
   <path class="fil1" d="M5.01 3.74l0 0.27c0.17,0.01 0.38,0.01 0.38,-0.18 0,-0.19 -0.2,-0.19 -0.38,-0.18l0 0.09z"/>
   <path class="fil5" d="M8.92 0.39c-0.22,0.06 -0.07,0.23 0.13,0.18 0.2,-0.05 0.06,-0.22 -0.13,-0.18z"/>
  </g>
 </g>
</svg>
